# xmcd CD database file
#
# Track frame offsets:
#	150
#	20947
#	38012
#	56455
#	78655
#	94830
#	109907
#	127932
#	144062
#	160160
#	179527
#	201192
#	212187
#	227902
#	243060
#	263652
#	277115
#	297455
#	312745
#
# Disc length: 4355 seconds
#
# Revision: 1
# Processed by: cddbd v1.5PL3 Copyright (c) Steve Scherf et al.
# Submitted via: CDex 1.40Release
#
DISCID=1b110113
DTITLE=Alcymar Monteiro - Os grandes sucessos da vaquejada
DYEAR=1998
DGENRE=Country
TTITLE0=Vaquejada
TTITLE1=Festa de vaquejada
TTITLE2=morena linda
TTITLE3=Cadê minha floresta
TTITLE4=Festa do boi
TTITLE5=No calor da vaquejada
TTITLE6=Poeira voando
TTITLE7=Se buliram com você
TTITLE8=Três dias de vaquejada
TTITLE9=Falta um boi vaqueiro
TTITLE10=Nordestino sim, nordestino não
TTITLE11=Quero voltar pra mim
TTITLE12=Fé em Deus e pé na estrada
TTITLE13=Cadê o boi
TTITLE14=Vida de gado
TTITLE15=O fazendeiro
TTITLE16=Vaqueiro nordestino
TTITLE17=Olho d´agua
TTITLE18=Arrocha o nó
EXTD=YEAR: 1998 ID3G: 2
EXTT0=
EXTT1=
EXTT2=
EXTT3=
EXTT4=
EXTT5=
EXTT6=
EXTT7=
EXTT8=
EXTT9=
EXTT10=
EXTT11=
EXTT12=
EXTT13=
EXTT14=
EXTT15=
EXTT16=
EXTT17=
EXTT18=
PLAYORDER=
